<svg xmlns="http://www.w3.org/2000/svg" viewBox="0 0 1533.76 296.91"><defs><style>.cls-1{fill:#3b3465;}.cls-2{fill:#f57e20;}.cls-3{fill:#fff;}</style></defs><title>Asset 1</title><g id="Layer_2" data-name="Layer 2"><g id="Layer_1-2" data-name="Layer 1"><rect class="cls-1" x="32.71" y="32.71" width="231.48" height="231.48" rx="36.77" transform="translate(-61.49 148.46) rotate(-45)"/><path class="cls-2" d="M147.65,75.49V48.3a77.46,77.46,0,1,0,0,154.91V176A50.21,50.21,0,0,1,106,153.84c-.88-1.3-1.7-2.65-2.46-4a50.28,50.28,0,0,1,44.15-74.32Z"/><path class="cls-3" d="M123.59,125.75a24.06,24.06,0,0,0,24.06,24.06v23.37a47.34,47.34,0,0,1-37.73-18.69,46.59,46.59,0,0,1-3.14-4.68,47.42,47.42,0,0,1,40.87-71.47V101.7A24.06,24.06,0,0,0,123.59,125.75Z"/><circle class="cls-3" cx="179.08" cy="69.84" r="21.55"/><circle class="cls-3" cx="126.1" cy="233.71" r="21.55"/><path class="cls-2" d="M166.7,251.05l-9.16,4.2V101.7h43.09v95.8A58.77,58.77,0,0,1,166.7,251.05Z"/><path class="cls-1" d="M415.33,111.5h36.44c9.67,0,16.26,4.61,16.26,15.22-.3,43.73-34.36,60.73-66.88,60.73C361.39,187.45,332,157.71,332,117c0-41.4,30.19-71.15,76.94-71.15a105.24,105.24,0,0,1,35.75,6,15.91,15.91,0,0,1-5.4,30.89,16.7,16.7,0,0,1-5-.84,75.94,75.94,0,0,0-24.84-4.37c-25.13,0-41.84,15.08-41.84,40.11,0,24.19,14.72,38.22,35.59,38.22,14.68,0,28.16-5.95,30.64-18.54H415.33a12.89,12.89,0,1,1,0-25.78Z"/><path class="cls-1" d="M481.58,48.39a19.78,19.78,0,1,1,39.56,0,19.78,19.78,0,1,1-39.56,0ZM519,97.77v70.7a17.36,17.36,0,0,1-34.71,0V97.77a17.36,17.36,0,0,1,34.71,0Z"/><path class="cls-1" d="M644.34,116.16v52.31a17.36,17.36,0,0,1-34.71,0V131.33c0-14.77-6.74-20.22-15.86-20.22s-17.85,5.45-17.85,20.22v37.14a17.35,17.35,0,0,1-34.7,0V97.77a17.35,17.35,0,0,1,34.7,0v0c4-9.91,14.28-18.94,32.13-18.94C627.88,78.78,644.34,90.58,644.34,116.16Z"/><path class="cls-1" d="M663.83,48.39a19.78,19.78,0,1,1,39.56,0,19.78,19.78,0,0,1-39.56,0Zm37.43,49.38v70.7a17.35,17.35,0,0,1-34.7,0V97.77a17.35,17.35,0,0,1,34.7,0Z"/><path class="cls-1" d="M936.7,46.56a17.52,17.52,0,0,1,16.71,22.21l-28.16,98.9a25.11,25.11,0,0,1-48.29-.25l-19.63-66.67-17.8,66.08a25.05,25.05,0,0,1-48.18,1.44L760.81,70.55A18.74,18.74,0,0,1,760,65a18.4,18.4,0,0,1,36.24-4.51l20.88,80.71,19.13-73.72a22.43,22.43,0,0,1,43.38-.4l21,74.12L919.8,59.94A17.33,17.33,0,0,1,936.7,46.56Z"/><path class="cls-1" d="M1041.08,138.47H989.67c3.12,13.19,13.63,19.44,28.7,19.44a64.58,64.58,0,0,0,18.1-2.73,13.35,13.35,0,0,1,3.72-.5,14.36,14.36,0,0,1,4.61,28,88.52,88.52,0,0,1-29.25,4.81c-39.07,0-61-23.35-61-54.53s23.3-54.14,56.76-54.14c30.1,0,48.69,16.56,48.69,43.83C1060,133.12,1053.28,138.47,1041.08,138.47ZM1027,120.18c0-8.88-7.49-16.61-17.8-16.61-9.76,0-16.9,6.15-19.48,16.56Z"/><path class="cls-1" d="M1190.56,133.12c0,31-19.14,54.33-48.14,54.33-14.52,0-24.79-6-31.38-15.76a17.36,17.36,0,0,1-34.41-3.22V49.68a17.36,17.36,0,0,1,34.71,0V94.1c6.59-9.47,16.75-15.32,31.08-15.32C1171.42,78.78,1190.56,102.28,1190.56,133.12Zm-35.69,0c0-13.14-9.13-23-22.26-23s-22.26,9.86-22.26,23,9.12,23,22.26,23S1154.87,146.26,1154.87,133.12Z"/><path class="cls-1" d="M1292.4,153c0,23.4-20.33,34.45-47.69,34.45a100.62,100.62,0,0,1-32.57-5.4c-6-2.18-9.87-6.69-9.87-12.79,0-7.54,5.35-13.09,13.53-13.09,9.13,0,16.27,5.5,29.65,5.5,7.24,0,13.14-1.14,13.14-6.29,0-12.74-53.64-5-53.64-42.69,0-23.79,21.07-33.91,45.41-33.91,10.86,0,22.41,2.18,29.79,5.11,6,2.33,9.52,6.44,9.52,13.14,0,6.89-5.5,12.59-13.43,12.59-7.69,0-14.88-5.75-26.62-5.75-9.08,0-11.66,2.58-11.66,5.9C1238,121,1292.4,114.33,1292.4,153Z"/><path class="cls-1" d="M1390.32,138.47h-51.41c3.12,13.19,13.63,19.44,28.7,19.44a64.58,64.58,0,0,0,18.1-2.73,13.35,13.35,0,0,1,3.72-.5,14.36,14.36,0,0,1,4.61,28,88.52,88.52,0,0,1-29.25,4.81c-39.07,0-61-23.35-61-54.53s23.3-54.14,56.76-54.14c30.1,0,48.69,16.56,48.69,43.83C1409.26,133.12,1402.51,138.47,1390.32,138.47Zm-14.08-18.29c0-8.88-7.49-16.61-17.8-16.61-9.76,0-16.9,6.15-19.48,16.56Z"/><path class="cls-1" d="M1420.62,133.12c0-30.29,23.89-54.34,56.57-54.34s56.56,24,56.56,54.34-23.89,54.33-56.56,54.33S1420.62,163.41,1420.62,133.12Zm78.13,0c0-13.83-9.12-23.4-21.56-23.4s-21.57,9.57-21.57,23.4,9.12,23.25,21.57,23.25S1498.75,146.8,1498.75,133.12Z"/><path class="cls-2" d="M357.07,258.85a1.82,1.82,0,0,1-2.09,2,2,2,0,0,1-1.61-.75l-17.24-22v20.69a1.81,1.81,0,0,1-2.07,2,1.79,1.79,0,0,1-2-2V232.27a1.85,1.85,0,0,1,2.11-2.07,1.91,1.91,0,0,1,1.63.86L353,252.92V232.27A1.83,1.83,0,0,1,355,230.2a1.81,1.81,0,0,1,2,2.07Z"/><path class="cls-2" d="M412.81,258a2.54,2.54,0,0,1,.22.9,1.79,1.79,0,0,1-2,2,2,2,0,0,1-1.94-1.25l-3-6.57H391.92l-3,6.57a2,2,0,0,1-1.94,1.25,1.79,1.79,0,0,1-2-2,2.54,2.54,0,0,1,.22-.9l11.89-26.49a2.11,2.11,0,0,1,3.86,0Zm-8.7-32.43a1.51,1.51,0,0,1,.5,1.12c0,.93-.49,1.39-1.49,1.39a1.55,1.55,0,0,1-1-.35L399,224.8l-3.14,2.88a1.55,1.55,0,0,1-1,.35c-1,0-1.49-.46-1.49-1.39a1.51,1.51,0,0,1,.5-1.12l4-3.69a1.5,1.5,0,0,1,2.16,0Zm-5.12,11-5.49,12.74h11Z"/><path class="cls-2" d="M465.94,258.85a1.82,1.82,0,0,1-2.09,2,2,2,0,0,1-1.6-.75l-17.25-22v20.69a2,2,0,0,1-4.09,0V232.27A1.85,1.85,0,0,1,443,230.2a1.91,1.91,0,0,1,1.63.86l17.18,21.86V232.27a1.84,1.84,0,0,1,2.09-2.07,1.81,1.81,0,0,1,2,2.07Z"/><path class="cls-2" d="M521.94,254.85a1.87,1.87,0,0,1-.5,1.43q-4.34,4.79-12.06,4.79a14.67,14.67,0,0,1-11.05-4.44,16.67,16.67,0,0,1,.11-22.25A14.51,14.51,0,0,1,509.29,230a16.57,16.57,0,0,1,5.6.9,11.64,11.64,0,0,1,4.57,2.94,2,2,0,0,1,.68,1.43,1.75,1.75,0,0,1-2,2,2.57,2.57,0,0,1-1.45-.53,12.16,12.16,0,0,0-7.42-2.7,10.11,10.11,0,0,0-7.84,3.36,11.64,11.64,0,0,0-2.95,8.15,12.36,12.36,0,0,0,2.77,8.28,10.09,10.09,0,0,0,8.11,3.51c3.51,0,6.29-.9,8.32-2.7V249.1h-7.14a1.76,1.76,0,0,1-2-2c0-1.29.67-1.93,2-1.93h9.21a1.93,1.93,0,0,1,2.17,2.19Z"/><path class="cls-2" d="M606.47,234.6h-8.41v24.07c0,1.47-.7,2.2-2.11,2.2a2,2,0,0,1-2.22-2.2V234.6h-8.5q-2.07,0-2.07-2a1.83,1.83,0,0,1,2.07-2.07h21.24a1.83,1.83,0,0,1,2.07,2.07Q608.54,234.6,606.47,234.6Z"/><path class="cls-2" d="M661.36,258a2.34,2.34,0,0,1,.22.9,1.78,1.78,0,0,1-2,2,1.94,1.94,0,0,1-1.93-1.25l-3-6.57H640.47l-3,6.57a2,2,0,0,1-1.94,1.25,1.79,1.79,0,0,1-2-2,2.54,2.54,0,0,1,.22-.9l11.89-26.49a2.11,2.11,0,0,1,3.86,0Zm-8.68-32.43a1.57,1.57,0,0,1,.49,1.12c0,.93-.5,1.39-1.5,1.39a1.6,1.6,0,0,1-1-.35l-3.14-2.88-3.14,2.88a1.55,1.55,0,0,1-1,.35c-1,0-1.49-.46-1.49-1.39a1.55,1.55,0,0,1,.5-1.12l4.05-3.69a1.58,1.58,0,0,1,1.07-.46,1.63,1.63,0,0,1,1.08.46Zm-5.14,11-5.49,12.74h11Zm4-14.22a2.06,2.06,0,0,1-1.62-.77L647.85,219a1.86,1.86,0,0,1-.55-1.18c0-1.2.56-1.8,1.67-1.8a1.9,1.9,0,0,1,1.47.72l2.22,2.62a2,2,0,0,1,.57,1.16Q653.23,222.27,651.58,222.27Z"/><path class="cls-2" d="M716.2,231.5a2.07,2.07,0,0,1,1.94-1.3,1.79,1.79,0,0,1,2,2v26.59a1.81,1.81,0,0,1-2,2.06,1.83,1.83,0,0,1-2.09-2.06V240.59l-9.36,19a2.05,2.05,0,0,1-3.78,0l-9.36-19v18.22a1.82,1.82,0,0,1-2.06,2.06,1.8,1.8,0,0,1-2-2.06V232.22a1.79,1.79,0,0,1,2-2,2.06,2.06,0,0,1,1.93,1.3l11.38,23.35Z"/><path class="cls-2" d="M805.94,234.6h-8.41v24.07c0,1.47-.71,2.2-2.11,2.2a2,2,0,0,1-2.22-2.2V234.6h-8.5q-2.07,0-2.07-2a1.83,1.83,0,0,1,2.07-2.07h21.24a1.82,1.82,0,0,1,2.06,2.07C808,233.94,807.32,234.6,805.94,234.6Z"/><path class="cls-2" d="M859.86,258.67a2.16,2.16,0,1,1-4.31,0V247.16H839.41v11.51a2.17,2.17,0,1,1-4.33,0V232.4a2.17,2.17,0,1,1,4.33,0v10.7h16.14V232.4a2.16,2.16,0,1,1,4.31,0Z"/><path class="cls-2" d="M915,239v9.51q0,5.79-3.36,9.14c-2.25,2.25-5.34,3.38-9.3,3.38s-7-1.13-9.27-3.38-3.36-5.28-3.36-9.14V232.4a2,2,0,0,1,2.2-2.2,1.92,1.92,0,0,1,2.13,2.2V249a8,8,0,0,0,2.09,5.86,9.67,9.67,0,0,0,12.45,0,8.06,8.06,0,0,0,2.09-5.86V232.4a1.92,1.92,0,0,1,2.13-2.2,2,2,0,0,1,2.2,2.2V235a12.7,12.7,0,0,0,.44-3.42v-2.16c0-1.24.66-1.86,2-1.86s2,.62,2,1.86V231a14.6,14.6,0,0,1-.39,3.38,14.16,14.16,0,0,1-1.32,3.47,2.12,2.12,0,0,1-1.85,1.23A4.09,4.09,0,0,1,915,239Z"/><path class="cls-2" d="M972.14,238.51a16.24,16.24,0,0,1,1.49,7,15.38,15.38,0,0,1-4.17,10.94,15.55,15.55,0,0,1-22.06,0,16.41,16.41,0,0,1,0-21.88,15.55,15.55,0,0,1,22.06,0l.43.48a12.57,12.57,0,0,0,.47-3.51v-2.16c0-1.24.65-1.86,2-1.86s2,.62,2,1.86V231a14.08,14.08,0,0,1-.4,3.38,12.39,12.39,0,0,1-1.31,3.47A4.54,4.54,0,0,1,972.14,238.51Zm-5.65-1.08a11.06,11.06,0,0,0-16.13,0,13,13,0,0,0,0,16.21,11,11,0,0,0,16.13,0,13.09,13.09,0,0,0,0-16.21Z"/><path class="cls-2" d="M1027.09,258.85a1.82,1.82,0,0,1-2.09,2,2,2,0,0,1-1.6-.75l-17.25-22v20.69a1.8,1.8,0,0,1-2.06,2,1.78,1.78,0,0,1-2-2V232.27a1.84,1.84,0,0,1,2.1-2.07,1.91,1.91,0,0,1,1.63.86L1023,252.92V232.27a1.84,1.84,0,0,1,2.09-2.07,1.81,1.81,0,0,1,2,2.07Z"/><path class="cls-2" d="M1083.09,254.85a1.87,1.87,0,0,1-.5,1.43q-4.33,4.79-12.06,4.79a14.67,14.67,0,0,1-11-4.44,16.67,16.67,0,0,1,.11-22.25,14.51,14.51,0,0,1,10.85-4.37,16.57,16.57,0,0,1,5.6.9,11.64,11.64,0,0,1,4.57,2.94,2,2,0,0,1,.68,1.43,1.75,1.75,0,0,1-2,2,2.52,2.52,0,0,1-1.45-.53,12.21,12.21,0,0,0-7.43-2.7,10.11,10.11,0,0,0-7.84,3.36,11.64,11.64,0,0,0-2.95,8.15,12.36,12.36,0,0,0,2.77,8.28,10.09,10.09,0,0,0,8.11,3.51c3.51,0,6.29-.9,8.32-2.7V249.1h-7.14a1.76,1.76,0,0,1-2-2c0-1.29.67-1.93,2-1.93h9.21a1.93,1.93,0,0,1,2.17,2.19Z"/><path class="cls-2" d="M1172,258.67a2.16,2.16,0,1,1-4.31,0V247.16h-16.14v11.51a2.17,2.17,0,1,1-4.33,0V232.4a2.17,2.17,0,1,1,4.33,0v10.7h16.14V232.4a2.16,2.16,0,1,1,4.31,0Z"/><path class="cls-2" d="M1206.58,258.67a1.91,1.91,0,0,1-2.13,2.2,2,2,0,0,1-2.2-2.2V232.4a2,2,0,0,1,2.2-2.2,1.92,1.92,0,0,1,2.13,2.2Z"/><path class="cls-2" d="M1256.28,260.52H1239a1.92,1.92,0,0,1-2.2-2.15V232.71a1.93,1.93,0,0,1,2.2-2.16h16.6q2.07,0,2.07,2t-2.07,2h-14.47v8.7h8.17a2,2,0,1,1,0,3.95h-8.17v9.41h15.15c1.38,0,2.07.66,2.07,2S1257.66,260.52,1256.28,260.52Zm-3.73-35a1.56,1.56,0,0,1,.48,1.12c0,.93-.49,1.39-1.47,1.39a1.52,1.52,0,0,1-1-.35l-3.16-2.88-3.14,2.88a1.58,1.58,0,0,1-1,.35c-1,0-1.49-.46-1.49-1.39a1.51,1.51,0,0,1,.5-1.12l4-3.69a1.67,1.67,0,0,1,1.08-.46,1.63,1.63,0,0,1,1.08.46Zm-5.27,38.1a2.34,2.34,0,1,1-2.35,2.35A2.07,2.07,0,0,1,1247.28,263.62Z"/><path class="cls-2" d="M1289.11,257.69q-3.36-3.34-3.36-9.14V232.4a2,2,0,0,1,2.2-2.2,1.92,1.92,0,0,1,2.13,2.2V249a8.06,8.06,0,0,0,2.09,5.86,9.67,9.67,0,0,0,12.45,0,8,8,0,0,0,2.09-5.86V232.4a1.92,1.92,0,0,1,2.13-2.2,2,2,0,0,1,2.2,2.2v16.15q0,5.79-3.36,9.14t-9.3,3.38C1294.44,261.07,1291.36,259.94,1289.11,257.69Z"/><path class="cls-2" d="M1396.32,231.46a1.89,1.89,0,0,1,1.89-1.26,1.81,1.81,0,0,1,2.08,2,2.79,2.79,0,0,1-.24.9l-11.38,26.54a1.81,1.81,0,0,1-1.84,1.21,1.84,1.84,0,0,1-1.85-1.21l-11.38-26.54a2.89,2.89,0,0,1-.22-.9,1.81,1.81,0,0,1,2.07-2,1.88,1.88,0,0,1,1.89,1.26l9.49,22.89Z"/><path class="cls-2" d="M1432,258.67a1.91,1.91,0,0,1-2.13,2.2,1.94,1.94,0,0,1-2.2-2.2V232.4a2,2,0,0,1,2.2-2.2,1.92,1.92,0,0,1,2.13,2.2Z"/><path class="cls-2" d="M1481.66,260.52h-17.29a1.92,1.92,0,0,1-2.2-2.15V232.71a1.93,1.93,0,0,1,2.2-2.16H1481c1.37,0,2.06.66,2.06,2s-.69,2-2.06,2H1466.5v8.7h8.17a2,2,0,1,1,0,3.95h-8.17v9.41h15.16c1.38,0,2.06.66,2.06,2S1483,260.52,1481.66,260.52Zm-3.74-35a1.53,1.53,0,0,1,.49,1.12c0,.93-.49,1.39-1.47,1.39a1.5,1.5,0,0,1-1-.35l-3.17-2.88-3.14,2.88a1.55,1.55,0,0,1-1,.35c-1,0-1.49-.46-1.49-1.39a1.52,1.52,0,0,1,.51-1.12l4-3.69a1.66,1.66,0,0,1,1.07-.46,1.63,1.63,0,0,1,1.08.46Zm-5.27,38.1a2.34,2.34,0,1,1-2.35,2.35A2.07,2.07,0,0,1,1472.65,263.62Z"/><path class="cls-2" d="M1531.69,234.6h-8.41v24.07c0,1.47-.71,2.2-2.11,2.2a2,2,0,0,1-2.22-2.2V234.6h-8.5q-2.07,0-2.07-2a1.83,1.83,0,0,1,2.07-2.07h21.24a1.83,1.83,0,0,1,2.07,2.07Q1533.76,234.6,1531.69,234.6Z"/></g></g></svg>