<svg width="16" height="16" viewBox="0 0 16 16" fill="none" xmlns="http://www.w3.org/2000/svg">
<path fill-rule="evenodd" clip-rule="evenodd" d="M1.15164 1.1516C1.37667 0.926636 1.68184 0.800258 2.00004 0.800258C2.31823 0.800258 2.6234 0.926636 2.84844 1.1516L8.00004 6.3032L13.1516 1.1516C13.2623 1.03699 13.3947 0.94557 13.5412 0.88268C13.6876 0.819789 13.845 0.786685 14.0044 0.785301C14.1637 0.783916 14.3217 0.814278 14.4692 0.874615C14.6167 0.934952 14.7506 1.02406 14.8633 1.13673C14.976 1.2494 15.0651 1.38338 15.1254 1.53086C15.1858 1.67833 15.2161 1.83635 15.2147 1.99568C15.2134 2.15502 15.1803 2.31248 15.1174 2.45889C15.0545 2.60529 14.963 2.7377 14.8484 2.8484L9.69684 8L14.8484 13.1516C15.067 13.3779 15.188 13.681 15.1852 13.9957C15.1825 14.3103 15.0563 14.6113 14.8338 14.8338C14.6113 15.0563 14.3104 15.1825 13.9957 15.1852C13.6811 15.1879 13.378 15.067 13.1516 14.8484L8.00004 9.6968L2.84844 14.8484C2.62211 15.067 2.31899 15.1879 2.00436 15.1852C1.68972 15.1825 1.38874 15.0563 1.16625 14.8338C0.943765 14.6113 0.817562 14.3103 0.814828 13.9957C0.812093 13.681 0.933047 13.3779 1.15164 13.1516L6.30324 8L1.15164 2.8484C0.926672 2.62337 0.800293 2.3182 0.800293 2C0.800293 1.6818 0.926672 1.37663 1.15164 1.1516V1.1516Z" fill="#777981"/>
</svg>
