<svg width="20" height="18" viewBox="0 0 20 18" fill="none" xmlns="http://www.w3.org/2000/svg">
<path fill-rule="evenodd" clip-rule="evenodd" d="M10.3516 0.951594C10.5766 0.726629 10.8818 0.60025 11.2 0.60025C11.5182 0.60025 11.8234 0.726629 12.0484 0.951594L19.2484 8.15159C19.4734 8.37663 19.5997 8.6818 19.5997 8.99999C19.5997 9.31819 19.4734 9.62336 19.2484 9.84839L12.0484 17.0484C11.8221 17.267 11.5189 17.3879 11.2043 17.3852C10.8897 17.3825 10.5887 17.2563 10.3662 17.0338C10.1437 16.8113 10.0175 16.5103 10.0148 16.1957C10.0121 15.881 10.133 15.5779 10.3516 15.3516L15.5032 10.2H1.59999C1.28173 10.2 0.976509 10.0736 0.751466 9.84852C0.526422 9.62348 0.399994 9.31825 0.399994 8.99999C0.399994 8.68173 0.526422 8.37651 0.751466 8.15147C0.976509 7.92642 1.28173 7.79999 1.59999 7.79999H15.5032L10.3516 2.64839C10.1266 2.42336 10.0002 2.11819 10.0002 1.79999C10.0002 1.4818 10.1266 1.17663 10.3516 0.951594V0.951594Z" fill="currentColor"/>
</svg>
